<svg xmlns="http://www.w3.org/2000/svg" xml:space="preserve" viewBox="0 0 100 100"><path d="M0 50C0 15 15 0 50 0s50 15 50 50-15 50-50 50S0 85 0 50" style="fill:#daec21"/><path d="M 32.733718,17.398352 C 26.82874,59.485202 30.901984,68.249031 35.62645,71.172242 20.990208,69.771912 24.032109,81.239574 33.332065,82.296781 89.112053,88.637699 96.845088,16.173746 32.733718,17.398352 Z m 20.627959,13.822274 c 3.466311,0 6.26435,2.798034 6.26435,6.264339 l -0.02085,12.528808 c 0,3.466306 -2.777189,6.26447 -6.243501,6.26447 -3.466313,0 -6.264482,-2.798164 -6.264482,-6.26447 V 37.484965 c 0,-3.466305 2.798169,-6.264339 6.264482,-6.264339 z M 38.744725,50.013773 h 3.549826 c 0,6.264408 5.303858,10.649587 11.067126,10.649587 5.763267,0 11.067125,-4.385179 11.067125,-10.649587 h 3.549825 c 0,7.141426 -5.679734,13.03004 -12.528834,14.032345 v 6.849048 h -4.176234 v -6.849048 c -6.8491,-1.023186 -12.528834,-6.9118 -12.528834,-14.032345 z" style="fill:#006800"/></svg>